<svg width="73" height="54" viewBox="0 0 73 54" fill="none" xmlns="http://www.w3.org/2000/svg">
<path d="M29.3571 8C29.1571 8 28.9857 8.025 28.8143 8.075C27.7 8.275 26.8143 9.05 26.5857 10.025C26.5 10.175 26.5 10.325 26.5 10.5V24.25C26.5 26.325 28.4143 28 30.7857 28H46.5V25.5H30.7857C29.9857 25.5 29.3571 24.95 29.3571 24.25C29.3571 23.55 29.9857 23 30.7857 23H46.5V9.25C46.5 8.55 45.8714 8 45.0714 8H43.6429V15.5L40.7857 13L37.9286 15.5V8H29.3571Z" fill="#E3562A"/>
<path d="M4.57809 51C4.48475 51 4.40542 50.972 4.34009 50.916C4.28409 50.8507 4.25609 50.7713 4.25609 50.678V41.536C4.25609 41.4333 4.28409 41.354 4.34009 41.298C4.40542 41.2327 4.48475 41.2 4.57809 41.2H7.75609C9.16542 41.2 10.1828 41.5173 10.8081 42.152C11.4334 42.7773 11.7601 43.7247 11.7881 44.994C11.7974 45.2647 11.8021 45.6287 11.8021 46.086C11.8021 46.5433 11.7974 46.912 11.7881 47.192C11.7601 48.0787 11.6108 48.802 11.3401 49.362C11.0788 49.9127 10.6634 50.3233 10.0941 50.594C9.52475 50.8647 8.76875 51 7.82609 51H4.57809ZM7.75609 49.81C8.40009 49.81 8.90875 49.7213 9.28209 49.544C9.66475 49.3667 9.94009 49.0867 10.1081 48.704C10.2854 48.312 10.3834 47.7893 10.4021 47.136C10.4208 46.576 10.4301 46.226 10.4301 46.086C10.4301 45.9367 10.4208 45.5913 10.4021 45.05C10.3834 44.126 10.1641 43.454 9.74409 43.034C9.32409 42.6047 8.63809 42.39 7.68609 42.39H5.62809V49.81H7.75609ZM13.9364 42.362C13.8431 42.362 13.7638 42.334 13.6984 42.278C13.6424 42.2127 13.6144 42.1333 13.6144 42.04V41.284C13.6144 41.1907 13.6424 41.1113 13.6984 41.046C13.7638 40.9807 13.8431 40.948 13.9364 40.948H14.8184C14.9118 40.948 14.9911 40.9807 15.0564 41.046C15.1218 41.1113 15.1544 41.1907 15.1544 41.284V42.04C15.1544 42.1333 15.1218 42.2127 15.0564 42.278C14.9911 42.334 14.9118 42.362 14.8184 42.362H13.9364ZM14.0484 51C13.9551 51 13.8758 50.972 13.8104 50.916C13.7544 50.8507 13.7264 50.7713 13.7264 50.678V44.042C13.7264 43.9487 13.7544 43.874 13.8104 43.818C13.8758 43.7527 13.9551 43.72 14.0484 43.72H14.7204C14.8138 43.72 14.8884 43.7527 14.9444 43.818C15.0098 43.874 15.0424 43.9487 15.0424 44.042V50.678C15.0424 50.7713 15.0098 50.8507 14.9444 50.916C14.8884 50.972 14.8138 51 14.7204 51H14.0484ZM20.0571 51.14C19.0584 51.14 18.2744 50.86 17.7051 50.3C17.1451 49.7307 16.8464 48.9373 16.8091 47.92L16.7951 47.36L16.8091 46.8C16.8464 45.7827 17.1451 44.994 17.7051 44.434C18.2744 43.8647 19.0584 43.58 20.0571 43.58C20.7291 43.58 21.2984 43.7013 21.7651 43.944C22.2317 44.1867 22.5771 44.4853 22.8011 44.84C23.0344 45.1947 23.1604 45.5493 23.1791 45.904C23.1884 45.9973 23.1604 46.072 23.0951 46.128C23.0297 46.184 22.9504 46.212 22.8571 46.212H22.1851C22.0917 46.212 22.0217 46.1933 21.9751 46.156C21.9284 46.1187 21.8817 46.044 21.8351 45.932C21.6764 45.484 21.4524 45.1667 21.1631 44.98C20.8737 44.784 20.5097 44.686 20.0711 44.686C19.4924 44.686 19.0304 44.868 18.6851 45.232C18.3491 45.5867 18.1671 46.1327 18.1391 46.87L18.1251 47.374L18.1391 47.85C18.1671 48.5967 18.3491 49.1473 18.6851 49.502C19.0211 49.8567 19.4831 50.034 20.0711 50.034C20.5097 50.034 20.8737 49.9407 21.1631 49.754C21.4524 49.558 21.6764 49.236 21.8351 48.788C21.8817 48.676 21.9284 48.6013 21.9751 48.564C22.0217 48.5173 22.0917 48.494 22.1851 48.494H22.8571C22.9504 48.494 23.0297 48.5267 23.0951 48.592C23.1604 48.648 23.1884 48.7227 23.1791 48.816C23.1604 49.1613 23.0344 49.516 22.8011 49.88C22.5771 50.2347 22.2317 50.5333 21.7651 50.776C21.3077 51.0187 20.7384 51.14 20.0571 51.14ZM27.6837 51C26.209 51 25.4717 50.1787 25.4717 48.536V44.84H24.3797C24.2863 44.84 24.207 44.812 24.1417 44.756C24.0857 44.6907 24.0577 44.6113 24.0577 44.518V44.042C24.0577 43.9487 24.0857 43.874 24.1417 43.818C24.207 43.7527 24.2863 43.72 24.3797 43.72H25.4717V41.382C25.4717 41.2887 25.4997 41.214 25.5557 41.158C25.621 41.0927 25.7003 41.06 25.7937 41.06H26.4517C26.545 41.06 26.6197 41.0927 26.6757 41.158C26.741 41.214 26.7737 41.2887 26.7737 41.382V43.72H28.5097C28.603 43.72 28.6777 43.7527 28.7337 43.818C28.799 43.874 28.8317 43.9487 28.8317 44.042V44.518C28.8317 44.6113 28.799 44.6907 28.7337 44.756C28.6777 44.812 28.603 44.84 28.5097 44.84H26.7737V48.438C26.7737 48.9047 26.853 49.2593 27.0117 49.502C27.1703 49.7353 27.4317 49.852 27.7957 49.852H28.6497C28.743 49.852 28.8177 49.8847 28.8737 49.95C28.939 50.006 28.9717 50.0807 28.9717 50.174V50.678C28.9717 50.7713 28.939 50.8507 28.8737 50.916C28.8177 50.972 28.743 51 28.6497 51H27.6837ZM30.5204 42.362C30.4271 42.362 30.3477 42.334 30.2824 42.278C30.2264 42.2127 30.1984 42.1333 30.1984 42.04V41.284C30.1984 41.1907 30.2264 41.1113 30.2824 41.046C30.3477 40.9807 30.4271 40.948 30.5204 40.948H31.4024C31.4957 40.948 31.5751 40.9807 31.6404 41.046C31.7057 41.1113 31.7384 41.1907 31.7384 41.284V42.04C31.7384 42.1333 31.7057 42.2127 31.6404 42.278C31.5751 42.334 31.4957 42.362 31.4024 42.362H30.5204ZM30.6324 51C30.5391 51 30.4597 50.972 30.3944 50.916C30.3384 50.8507 30.3104 50.7713 30.3104 50.678V44.042C30.3104 43.9487 30.3384 43.874 30.3944 43.818C30.4597 43.7527 30.5391 43.72 30.6324 43.72H31.3044C31.3977 43.72 31.4724 43.7527 31.5284 43.818C31.5937 43.874 31.6264 43.9487 31.6264 44.042V50.678C31.6264 50.7713 31.5937 50.8507 31.5284 50.916C31.4724 50.972 31.3977 51 31.3044 51H30.6324ZM36.683 51.14C35.6564 51.14 34.8584 50.8507 34.289 50.272C33.729 49.6933 33.4304 48.9233 33.393 47.962L33.379 47.36L33.393 46.758C33.4304 45.806 33.7337 45.0407 34.303 44.462C34.8724 43.874 35.6657 43.58 36.683 43.58C37.7004 43.58 38.4937 43.874 39.063 44.462C39.6324 45.0407 39.9357 45.806 39.973 46.758C39.9824 46.8607 39.987 47.0613 39.987 47.36C39.987 47.6587 39.9824 47.8593 39.973 47.962C39.9357 48.9233 39.6324 49.6933 39.063 50.272C38.503 50.8507 37.7097 51.14 36.683 51.14ZM36.683 50.062C37.271 50.062 37.733 49.8753 38.069 49.502C38.4144 49.1287 38.601 48.592 38.629 47.892C38.6384 47.7987 38.643 47.6213 38.643 47.36C38.643 47.0987 38.6384 46.9213 38.629 46.828C38.601 46.128 38.4144 45.5913 38.069 45.218C37.733 44.8447 37.271 44.658 36.683 44.658C36.095 44.658 35.6284 44.8447 35.283 45.218C34.9377 45.5913 34.7557 46.128 34.737 46.828L34.723 47.36L34.737 47.892C34.7557 48.592 34.9377 49.1287 35.283 49.502C35.6284 49.8753 36.095 50.062 36.683 50.062ZM42.0621 51C41.9688 51 41.8894 50.972 41.8241 50.916C41.7681 50.8507 41.7401 50.7713 41.7401 50.678V44.042C41.7401 43.9487 41.7681 43.874 41.8241 43.818C41.8894 43.7527 41.9688 43.72 42.0621 43.72H42.7201C42.8134 43.72 42.8881 43.7527 42.9441 43.818C43.0094 43.874 43.0421 43.9487 43.0421 44.042V44.658C43.3128 44.3127 43.6301 44.0467 43.9941 43.86C44.3674 43.6733 44.8294 43.58 45.3801 43.58C46.2761 43.58 46.9714 43.8693 47.4661 44.448C47.9701 45.0173 48.2221 45.778 48.2221 46.73V50.678C48.2221 50.7713 48.1894 50.8507 48.1241 50.916C48.0681 50.972 47.9934 51 47.9001 51H47.2001C47.1068 51 47.0274 50.972 46.9621 50.916C46.9061 50.8507 46.8781 50.7713 46.8781 50.678V46.8C46.8781 46.1373 46.7148 45.624 46.3881 45.26C46.0708 44.896 45.6088 44.714 45.0021 44.714C44.4141 44.714 43.9474 44.9007 43.6021 45.274C43.2568 45.638 43.0841 46.1467 43.0841 46.8V50.678C43.0841 50.7713 43.0514 50.8507 42.9861 50.916C42.9301 50.972 42.8554 51 42.7621 51H42.0621ZM52.2603 51.14C51.803 51.14 51.3783 51.0467 50.9863 50.86C50.5943 50.6733 50.2817 50.4213 50.0483 50.104C49.8243 49.7773 49.7123 49.418 49.7123 49.026C49.7123 48.41 49.9643 47.906 50.4683 47.514C50.9817 47.1127 51.6723 46.8513 52.5403 46.73L54.6263 46.436V46.03C54.6263 45.078 54.0803 44.602 52.9883 44.602C52.5777 44.602 52.2417 44.6907 51.9803 44.868C51.719 45.036 51.523 45.2367 51.3923 45.47C51.3643 45.554 51.327 45.6147 51.2803 45.652C51.243 45.6893 51.187 45.708 51.1123 45.708H50.5103C50.4263 45.708 50.3517 45.68 50.2863 45.624C50.2303 45.5587 50.2023 45.484 50.2023 45.4C50.2117 45.176 50.3143 44.924 50.5103 44.644C50.7157 44.3547 51.0283 44.1073 51.4483 43.902C51.8683 43.6873 52.3863 43.58 53.0023 43.58C54.0477 43.58 54.799 43.8273 55.2563 44.322C55.7137 44.8073 55.9423 45.414 55.9423 46.142V50.678C55.9423 50.7713 55.9097 50.8507 55.8443 50.916C55.7883 50.972 55.7137 51 55.6203 51H54.9763C54.883 51 54.8037 50.972 54.7383 50.916C54.6823 50.8507 54.6543 50.7713 54.6543 50.678V50.076C54.449 50.3747 54.1503 50.6267 53.7583 50.832C53.3663 51.0373 52.867 51.14 52.2603 51.14ZM52.5543 50.09C53.161 50.09 53.6557 49.894 54.0383 49.502C54.4303 49.1007 54.6263 48.5267 54.6263 47.78V47.388L53.0023 47.626C52.3397 47.7193 51.8403 47.878 51.5043 48.102C51.1683 48.3167 51.0003 48.592 51.0003 48.928C51.0003 49.3013 51.1543 49.5907 51.4623 49.796C51.7703 49.992 52.1343 50.09 52.5543 50.09ZM58.2769 51C58.1836 51 58.1043 50.972 58.0389 50.916C57.9829 50.8507 57.9549 50.7713 57.9549 50.678V44.056C57.9549 43.9627 57.9829 43.8833 58.0389 43.818C58.1043 43.7527 58.1836 43.72 58.2769 43.72H58.9209C59.0143 43.72 59.0936 43.7527 59.1589 43.818C59.2243 43.8833 59.2569 43.9627 59.2569 44.056V44.672C59.6396 44.0373 60.2929 43.72 61.2169 43.72H61.7629C61.8563 43.72 61.9309 43.7527 61.9869 43.818C62.0523 43.874 62.0849 43.9487 62.0849 44.042V44.616C62.0849 44.7093 62.0523 44.784 61.9869 44.84C61.9309 44.896 61.8563 44.924 61.7629 44.924H60.9229C60.4189 44.924 60.0223 45.0733 59.7329 45.372C59.4436 45.6613 59.2989 46.058 59.2989 46.562V50.678C59.2989 50.7713 59.2663 50.8507 59.2009 50.916C59.1356 50.972 59.0563 51 58.9629 51H58.2769ZM64.5473 53.66C64.4726 53.66 64.4073 53.632 64.3513 53.576C64.2953 53.52 64.2673 53.4547 64.2673 53.38C64.2673 53.3147 64.2906 53.2307 64.3373 53.128L65.4153 50.566L62.7413 44.252C62.6946 44.1307 62.6713 44.0513 62.6713 44.014C62.6713 43.93 62.6993 43.86 62.7553 43.804C62.8113 43.748 62.8813 43.72 62.9653 43.72H63.6513C63.8006 43.72 63.9126 43.7993 63.9873 43.958L66.1153 49.054L68.2993 43.958C68.374 43.7993 68.4906 43.72 68.6493 43.72H69.3073C69.3913 43.72 69.4613 43.748 69.5173 43.804C69.5733 43.86 69.6013 43.9253 69.6013 44C69.6013 44.028 69.578 44.112 69.5313 44.252L65.5553 53.422C65.4806 53.5807 65.364 53.66 65.2053 53.66H64.5473Z" fill="#E3562A"/>
</svg>
