<svg width="73" height="54" viewBox="0 0 73 54" fill="none" xmlns="http://www.w3.org/2000/svg">
<path d="M29.3571 8C29.1571 8 28.9857 8.025 28.8143 8.075C27.7 8.275 26.8143 9.05 26.5857 10.025C26.5 10.175 26.5 10.325 26.5 10.5V24.25C26.5 26.325 28.4143 28 30.7857 28H46.5V25.5H30.7857C29.9857 25.5 29.3571 24.95 29.3571 24.25C29.3571 23.55 29.9857 23 30.7857 23H46.5V9.25C46.5 8.55 45.8714 8 45.0714 8H43.6429V15.5L40.7857 13L37.9286 15.5V8H29.3571Z" fill="#BEBAB3"/>
<path d="M4.55758 51C4.45491 51 4.37558 50.972 4.31958 50.916C4.26358 50.8507 4.23558 50.7713 4.23558 50.678V41.536C4.23558 41.4333 4.26358 41.354 4.31958 41.298C4.37558 41.2327 4.45491 41.2 4.55758 41.2H7.73558C8.69691 41.2 9.47158 41.3447 10.0596 41.634C10.6476 41.9233 11.0769 42.3527 11.3476 42.922C11.6182 43.482 11.7582 44.1727 11.7676 44.994C11.7769 45.414 11.7816 45.7827 11.7816 46.1C11.7816 46.4173 11.7769 46.7813 11.7676 47.192C11.7489 48.0507 11.6042 48.7647 11.3336 49.334C11.0722 49.894 10.6522 50.314 10.0736 50.594C9.50425 50.8647 8.74825 51 7.80558 51H4.55758ZM5.60758 49.81H7.73558C8.37958 49.81 8.89291 49.7213 9.27558 49.544C9.65825 49.3667 9.93358 49.082 10.1016 48.69C10.2789 48.298 10.3722 47.78 10.3816 47.136C10.4002 46.856 10.4096 46.6133 10.4096 46.408C10.4096 46.1933 10.4096 45.9833 10.4096 45.778C10.4096 45.5633 10.4002 45.3207 10.3816 45.05C10.3629 44.1447 10.1482 43.4773 9.73758 43.048C9.32691 42.6093 8.63625 42.39 7.66558 42.39H5.60758V49.81ZM14.0279 51C13.9346 51 13.8553 50.972 13.7899 50.916C13.7339 50.8507 13.7059 50.7713 13.7059 50.678V44.042C13.7059 43.9487 13.7339 43.874 13.7899 43.818C13.8553 43.7527 13.9346 43.72 14.0279 43.72H14.6999C14.7933 43.72 14.8679 43.7527 14.9239 43.818C14.9799 43.874 15.0079 43.9487 15.0079 44.042V50.678C15.0079 50.7713 14.9799 50.8507 14.9239 50.916C14.8679 50.972 14.7933 51 14.6999 51H14.0279ZM13.9159 42.362C13.8226 42.362 13.7433 42.334 13.6779 42.278C13.6219 42.2127 13.5939 42.1333 13.5939 42.04V41.284C13.5939 41.1907 13.6219 41.116 13.6779 41.06C13.7433 40.9947 13.8226 40.962 13.9159 40.962H14.7979C14.8913 40.962 14.9659 40.9947 15.0219 41.06C15.0873 41.116 15.1199 41.1907 15.1199 41.284V42.04C15.1199 42.1333 15.0873 42.2127 15.0219 42.278C14.9659 42.334 14.8913 42.362 14.7979 42.362H13.9159ZM20.0639 51.14C19.4012 51.14 18.8272 51.014 18.3419 50.762C17.8659 50.5007 17.4972 50.132 17.2359 49.656C16.9746 49.1707 16.8346 48.592 16.8159 47.92C16.8066 47.78 16.8019 47.5933 16.8019 47.36C16.8019 47.1267 16.8066 46.94 16.8159 46.8C16.8346 46.128 16.9746 45.554 17.2359 45.078C17.4972 44.5927 17.8659 44.224 18.3419 43.972C18.8272 43.7107 19.4012 43.58 20.0639 43.58C20.6052 43.58 21.0672 43.6547 21.4499 43.804C21.8419 43.9533 22.1639 44.1447 22.4159 44.378C22.6679 44.6113 22.8546 44.8633 22.9759 45.134C23.1066 45.4047 23.1766 45.6613 23.1859 45.904C23.1952 45.9973 23.1672 46.072 23.1019 46.128C23.0366 46.184 22.9572 46.212 22.8639 46.212H22.1919C22.0986 46.212 22.0286 46.1933 21.9819 46.156C21.9352 46.1093 21.8886 46.0347 21.8419 45.932C21.6739 45.4747 21.4452 45.1527 21.1559 44.966C20.8666 44.7793 20.5072 44.686 20.0779 44.686C19.5179 44.686 19.0606 44.8587 18.7059 45.204C18.3606 45.5493 18.1739 46.1047 18.1459 46.87C18.1366 47.206 18.1366 47.5327 18.1459 47.85C18.1739 48.6247 18.3606 49.1847 18.7059 49.53C19.0606 49.866 19.5179 50.034 20.0779 50.034C20.5072 50.034 20.8666 49.9407 21.1559 49.754C21.4452 49.5673 21.6739 49.2453 21.8419 48.788C21.8886 48.6853 21.9352 48.6153 21.9819 48.578C22.0286 48.5313 22.0986 48.508 22.1919 48.508H22.8639C22.9572 48.508 23.0366 48.536 23.1019 48.592C23.1672 48.648 23.1952 48.7227 23.1859 48.816C23.1766 49.012 23.1346 49.2127 23.0599 49.418C22.9852 49.6233 22.8639 49.8333 22.6959 50.048C22.5372 50.2533 22.3366 50.44 22.0939 50.608C21.8512 50.7667 21.5572 50.8973 21.2119 51C20.8759 51.0933 20.4932 51.14 20.0639 51.14ZM27.6905 51C27.1678 51 26.7432 50.902 26.4165 50.706C26.0898 50.5007 25.8518 50.216 25.7025 49.852C25.5532 49.4787 25.4785 49.04 25.4785 48.536V44.84H24.3865C24.2932 44.84 24.2138 44.812 24.1485 44.756C24.0925 44.6907 24.0645 44.6113 24.0645 44.518V44.042C24.0645 43.9487 24.0925 43.874 24.1485 43.818C24.2138 43.7527 24.2932 43.72 24.3865 43.72H25.4785V41.382C25.4785 41.2887 25.5065 41.214 25.5625 41.158C25.6278 41.0927 25.7072 41.06 25.8005 41.06H26.4585C26.5518 41.06 26.6265 41.0927 26.6825 41.158C26.7478 41.214 26.7805 41.2887 26.7805 41.382V43.72H28.5165C28.6098 43.72 28.6845 43.7527 28.7405 43.818C28.8058 43.874 28.8385 43.9487 28.8385 44.042V44.518C28.8385 44.6113 28.8058 44.6907 28.7405 44.756C28.6845 44.812 28.6098 44.84 28.5165 44.84H26.7805V48.438C26.7805 48.8767 26.8552 49.222 27.0045 49.474C27.1538 49.726 27.4198 49.852 27.8025 49.852H28.6565C28.7498 49.852 28.8245 49.8847 28.8805 49.95C28.9458 50.006 28.9785 50.0807 28.9785 50.174V50.678C28.9785 50.7713 28.9458 50.8507 28.8805 50.916C28.8245 50.972 28.7498 51 28.6565 51H27.6905ZM30.6393 51C30.5459 51 30.4666 50.972 30.4013 50.916C30.3453 50.8507 30.3173 50.7713 30.3173 50.678V44.042C30.3173 43.9487 30.3453 43.874 30.4013 43.818C30.4666 43.7527 30.5459 43.72 30.6393 43.72H31.3113C31.4046 43.72 31.4793 43.7527 31.5353 43.818C31.5913 43.874 31.6193 43.9487 31.6193 44.042V50.678C31.6193 50.7713 31.5913 50.8507 31.5353 50.916C31.4793 50.972 31.4046 51 31.3113 51H30.6393ZM30.5273 42.362C30.4339 42.362 30.3546 42.334 30.2893 42.278C30.2333 42.2127 30.2052 42.1333 30.2052 42.04V41.284C30.2052 41.1907 30.2333 41.116 30.2893 41.06C30.3546 40.9947 30.4339 40.962 30.5273 40.962H31.4093C31.5026 40.962 31.5773 40.9947 31.6333 41.06C31.6986 41.116 31.7313 41.1907 31.7313 41.284V42.04C31.7313 42.1333 31.6986 42.2127 31.6333 42.278C31.5773 42.334 31.5026 42.362 31.4093 42.362H30.5273ZM36.7172 51.14C36.0079 51.14 35.4152 51.0047 34.9392 50.734C34.4632 50.4633 34.0992 50.09 33.8472 49.614C33.5952 49.1287 33.4552 48.578 33.4272 47.962C33.4179 47.8033 33.4132 47.6027 33.4132 47.36C33.4132 47.108 33.4179 46.9073 33.4272 46.758C33.4552 46.1327 33.5952 45.582 33.8472 45.106C34.1086 44.63 34.4772 44.2567 34.9532 43.986C35.4292 43.7153 36.0172 43.58 36.7172 43.58C37.4172 43.58 38.0052 43.7153 38.4812 43.986C38.9572 44.2567 39.3212 44.63 39.5732 45.106C39.8346 45.582 39.9792 46.1327 40.0072 46.758C40.0166 46.9073 40.0212 47.108 40.0212 47.36C40.0212 47.6027 40.0166 47.8033 40.0072 47.962C39.9792 48.578 39.8392 49.1287 39.5872 49.614C39.3352 50.09 38.9712 50.4633 38.4952 50.734C38.0192 51.0047 37.4266 51.14 36.7172 51.14ZM36.7172 50.062C37.2959 50.062 37.7579 49.88 38.1032 49.516C38.4486 49.1427 38.6352 48.6013 38.6632 47.892C38.6726 47.752 38.6772 47.5747 38.6772 47.36C38.6772 47.1453 38.6726 46.968 38.6632 46.828C38.6352 46.1187 38.4486 45.582 38.1032 45.218C37.7579 44.8447 37.2959 44.658 36.7172 44.658C36.1386 44.658 35.6719 44.8447 35.3172 45.218C34.9719 45.582 34.7899 46.1187 34.7712 46.828C34.7619 46.968 34.7572 47.1453 34.7572 47.36C34.7572 47.5747 34.7619 47.752 34.7712 47.892C34.7899 48.6013 34.9719 49.1427 35.3172 49.516C35.6719 49.88 36.1386 50.062 36.7172 50.062ZM42.0963 51C42.0029 51 41.9236 50.972 41.8583 50.916C41.8023 50.8507 41.7743 50.7713 41.7743 50.678V44.042C41.7743 43.9487 41.8023 43.874 41.8583 43.818C41.9236 43.7527 42.0029 43.72 42.0963 43.72H42.7543C42.8476 43.72 42.9223 43.7527 42.9783 43.818C43.0436 43.874 43.0763 43.9487 43.0763 44.042V44.658C43.3189 44.3407 43.6223 44.084 43.9863 43.888C44.3596 43.6827 44.8356 43.58 45.4143 43.58C46.0209 43.58 46.5343 43.7153 46.9543 43.986C47.3836 44.2473 47.7056 44.616 47.9203 45.092C48.1349 45.5587 48.2423 46.1047 48.2423 46.73V50.678C48.2423 50.7713 48.2143 50.8507 48.1583 50.916C48.1023 50.972 48.0276 51 47.9343 51H47.2343C47.1409 51 47.0616 50.972 46.9963 50.916C46.9403 50.8507 46.9123 50.7713 46.9123 50.678V46.8C46.9123 46.1467 46.7536 45.638 46.4363 45.274C46.1189 44.9007 45.6523 44.714 45.0363 44.714C44.4576 44.714 43.9909 44.9007 43.6363 45.274C43.2909 45.638 43.1183 46.1467 43.1183 46.8V50.678C43.1183 50.7713 43.0856 50.8507 43.0203 50.916C42.9643 50.972 42.8896 51 42.7963 51H42.0963ZM52.2945 51.14C51.8278 51.14 51.4032 51.0467 51.0205 50.86C50.6378 50.6733 50.3298 50.4213 50.0965 50.104C49.8632 49.7867 49.7465 49.4273 49.7465 49.026C49.7465 48.382 50.0078 47.8687 50.5305 47.486C51.0532 47.1033 51.7345 46.8513 52.5745 46.73L54.6605 46.436V46.03C54.6605 45.582 54.5298 45.232 54.2685 44.98C54.0165 44.728 53.6012 44.602 53.0225 44.602C52.6025 44.602 52.2618 44.686 52.0005 44.854C51.7485 45.022 51.5712 45.2367 51.4685 45.498C51.4125 45.638 51.3145 45.708 51.1745 45.708H50.5445C50.4418 45.708 50.3625 45.68 50.3065 45.624C50.2598 45.5587 50.2365 45.484 50.2365 45.4C50.2365 45.26 50.2878 45.0873 50.3905 44.882C50.5025 44.6767 50.6705 44.476 50.8945 44.28C51.1185 44.084 51.4032 43.9207 51.7485 43.79C52.1032 43.65 52.5325 43.58 53.0365 43.58C53.5965 43.58 54.0678 43.6547 54.4505 43.804C54.8332 43.944 55.1318 44.1353 55.3465 44.378C55.5705 44.6207 55.7292 44.896 55.8225 45.204C55.9252 45.512 55.9765 45.8247 55.9765 46.142V50.678C55.9765 50.7713 55.9438 50.8507 55.8785 50.916C55.8225 50.972 55.7478 51 55.6545 51H55.0105C54.9078 51 54.8285 50.972 54.7725 50.916C54.7165 50.8507 54.6885 50.7713 54.6885 50.678V50.076C54.5672 50.244 54.4038 50.412 54.1985 50.58C53.9932 50.7387 53.7365 50.874 53.4285 50.986C53.1205 51.0887 52.7425 51.14 52.2945 51.14ZM52.5885 50.09C52.9712 50.09 53.3212 50.0107 53.6385 49.852C53.9558 49.684 54.2032 49.4273 54.3805 49.082C54.5672 48.7367 54.6605 48.3027 54.6605 47.78V47.388L53.0365 47.626C52.3738 47.7193 51.8745 47.878 51.5385 48.102C51.2025 48.3167 51.0345 48.592 51.0345 48.928C51.0345 49.1893 51.1092 49.4087 51.2585 49.586C51.4172 49.754 51.6132 49.88 51.8465 49.964C52.0892 50.048 52.3365 50.09 52.5885 50.09ZM58.3111 51C58.2178 51 58.1385 50.972 58.0731 50.916C58.0171 50.8507 57.9891 50.7713 57.9891 50.678V44.056C57.9891 43.9627 58.0171 43.8833 58.0731 43.818C58.1385 43.7527 58.2178 43.72 58.3111 43.72H58.9551C59.0485 43.72 59.1278 43.7527 59.1931 43.818C59.2585 43.8833 59.2911 43.9627 59.2911 44.056V44.672C59.4778 44.3547 59.7345 44.1167 60.0611 43.958C60.3878 43.7993 60.7798 43.72 61.2371 43.72H61.7971C61.8905 43.72 61.9651 43.7527 62.0211 43.818C62.0771 43.874 62.1051 43.9487 62.1051 44.042V44.616C62.1051 44.7093 62.0771 44.784 62.0211 44.84C61.9651 44.896 61.8905 44.924 61.7971 44.924H60.9571C60.4531 44.924 60.0565 45.0733 59.7671 45.372C59.4778 45.6613 59.3331 46.058 59.3331 46.562V50.678C59.3331 50.7713 59.3005 50.8507 59.2351 50.916C59.1698 50.972 59.0905 51 58.9971 51H58.3111ZM64.5815 53.66C64.5068 53.66 64.4415 53.632 64.3855 53.576C64.3295 53.52 64.3015 53.4547 64.3015 53.38C64.3015 53.3427 64.3062 53.3053 64.3155 53.268C64.3248 53.2307 64.3435 53.184 64.3715 53.128L65.4495 50.566L62.7755 44.252C62.7288 44.14 62.7055 44.0607 62.7055 44.014C62.7055 43.93 62.7335 43.86 62.7895 43.804C62.8455 43.748 62.9155 43.72 62.9995 43.72H63.6855C63.7788 43.72 63.8535 43.7433 63.9095 43.79C63.9655 43.8367 64.0028 43.8927 64.0215 43.958L66.1495 49.054L68.3335 43.958C68.3615 43.8927 68.3988 43.8367 68.4455 43.79C68.5015 43.7433 68.5808 43.72 68.6835 43.72H69.3415C69.4255 43.72 69.4955 43.748 69.5515 43.804C69.6075 43.86 69.6355 43.9253 69.6355 44C69.6355 44.0467 69.6122 44.1307 69.5655 44.252L65.5895 53.422C65.5615 53.4873 65.5195 53.5433 65.4635 53.59C65.4168 53.6367 65.3422 53.66 65.2395 53.66H64.5815Z" fill="#BEBAB3"/>
</svg>
