<svg width="65" height="43" viewBox="0 0 65 43" fill="none" xmlns="http://www.w3.org/2000/svg">
<path d="M39.2507 8.25V18.75C39.2503 19.1477 39.0921 19.529 38.8109 19.8102C38.5297 20.0914 38.1484 20.2496 37.7507 20.25H24.2507C23.853 20.2496 23.4718 20.0914 23.1906 19.8102C22.9094 19.529 22.7512 19.1477 22.7507 18.75V8.25C22.7512 7.85231 22.9094 7.47104 23.1906 7.18983C23.4718 6.90863 23.853 6.75045 24.2507 6.75H37.7507C38.1484 6.75045 38.5297 6.90863 38.8109 7.18983C39.0921 7.47104 39.2503 7.85231 39.2507 8.25ZM40.7507 3.75H26.5007C26.3018 3.75 26.1111 3.82902 25.9704 3.96967C25.8298 4.11032 25.7507 4.30109 25.7507 4.5C25.7507 4.69891 25.8298 4.88968 25.9704 5.03033C26.1111 5.17098 26.3018 5.25 26.5007 5.25H40.7507V16.5C40.7507 16.6989 40.8298 16.8897 40.9704 17.0303C41.1111 17.171 41.3018 17.25 41.5007 17.25C41.6996 17.25 41.8904 17.171 42.0311 17.0303C42.1717 16.8897 42.2507 16.6989 42.2507 16.5V5.25C42.2503 4.85231 42.0921 4.47104 41.8109 4.18983C41.5297 3.90863 41.1484 3.75045 40.7507 3.75Z" fill="#BEBAB3"/>
<path d="M10.1713 39C10.0779 39 9.99859 38.972 9.93326 38.916C9.87726 38.8507 9.84926 38.7713 9.84926 38.678V30.446H7.16126C7.06792 30.446 6.98859 30.418 6.92326 30.362C6.86726 30.2967 6.83926 30.2173 6.83926 30.124V29.536C6.83926 29.4427 6.86726 29.3633 6.92326 29.298C6.98859 29.2327 7.06792 29.2 7.16126 29.2H13.9093C14.0119 29.2 14.0913 29.2327 14.1473 29.298C14.2126 29.354 14.2453 29.4333 14.2453 29.536V30.124C14.2453 30.2173 14.2126 30.2967 14.1473 30.362C14.0819 30.418 14.0026 30.446 13.9093 30.446H11.2353V38.678C11.2353 38.7713 11.2026 38.8507 11.1373 38.916C11.0719 38.972 10.9926 39 10.8993 39H10.1713ZM14.8199 39C14.7266 39 14.6472 38.972 14.5819 38.916C14.5259 38.8507 14.4979 38.7713 14.4979 38.678V32.056C14.4979 31.9627 14.5259 31.8833 14.5819 31.818C14.6472 31.7527 14.7266 31.72 14.8199 31.72H15.4639C15.5572 31.72 15.6366 31.7527 15.7019 31.818C15.7672 31.8833 15.7999 31.9627 15.7999 32.056V32.672C16.1826 32.0373 16.8359 31.72 17.7599 31.72H18.3059C18.3992 31.72 18.4739 31.7527 18.5299 31.818C18.5952 31.874 18.6279 31.9487 18.6279 32.042V32.616C18.6279 32.7093 18.5952 32.784 18.5299 32.84C18.4739 32.896 18.3992 32.924 18.3059 32.924H17.4659C16.9619 32.924 16.5652 33.0733 16.2759 33.372C15.9866 33.6613 15.8419 34.058 15.8419 34.562V38.678C15.8419 38.7713 15.8092 38.8507 15.7439 38.916C15.6786 38.972 15.5992 39 15.5059 39H14.8199ZM21.7369 39.14C21.2796 39.14 20.8549 39.0467 20.4629 38.86C20.0709 38.6733 19.7582 38.4213 19.5249 38.104C19.3009 37.7773 19.1889 37.418 19.1889 37.026C19.1889 36.41 19.4409 35.906 19.9449 35.514C20.4582 35.1127 21.1489 34.8513 22.0169 34.73L24.1029 34.436V34.03C24.1029 33.078 23.5569 32.602 22.4649 32.602C22.0542 32.602 21.7182 32.6907 21.4569 32.868C21.1956 33.036 20.9996 33.2367 20.8689 33.47C20.8409 33.554 20.8036 33.6147 20.7569 33.652C20.7196 33.6893 20.6636 33.708 20.5889 33.708H19.9869C19.9029 33.708 19.8282 33.68 19.7629 33.624C19.7069 33.5587 19.6789 33.484 19.6789 33.4C19.6882 33.176 19.7909 32.924 19.9869 32.644C20.1922 32.3547 20.5049 32.1073 20.9249 31.902C21.3449 31.6873 21.8629 31.58 22.4789 31.58C23.5242 31.58 24.2756 31.8273 24.7329 32.322C25.1902 32.8073 25.4189 33.414 25.4189 34.142V38.678C25.4189 38.7713 25.3862 38.8507 25.3209 38.916C25.2649 38.972 25.1902 39 25.0969 39H24.4529C24.3596 39 24.2802 38.972 24.2149 38.916C24.1589 38.8507 24.1309 38.7713 24.1309 38.678V38.076C23.9256 38.3747 23.6269 38.6267 23.2349 38.832C22.8429 39.0373 22.3436 39.14 21.7369 39.14ZM22.0309 38.09C22.6376 38.09 23.1322 37.894 23.5149 37.502C23.9069 37.1007 24.1029 36.5267 24.1029 35.78V35.388L22.4789 35.626C21.8162 35.7193 21.3169 35.878 20.9809 36.102C20.6449 36.3167 20.4769 36.592 20.4769 36.928C20.4769 37.3013 20.6309 37.5907 20.9389 37.796C21.2469 37.992 21.6109 38.09 22.0309 38.09ZM27.6415 30.362C27.5482 30.362 27.4688 30.334 27.4035 30.278C27.3475 30.2127 27.3195 30.1333 27.3195 30.04V29.284C27.3195 29.1907 27.3475 29.1113 27.4035 29.046C27.4688 28.9807 27.5482 28.948 27.6415 28.948H28.5235C28.6168 28.948 28.6962 28.9807 28.7615 29.046C28.8268 29.1113 28.8595 29.1907 28.8595 29.284V30.04C28.8595 30.1333 28.8268 30.2127 28.7615 30.278C28.6962 30.334 28.6168 30.362 28.5235 30.362H27.6415ZM27.7535 39C27.6602 39 27.5808 38.972 27.5155 38.916C27.4595 38.8507 27.4315 38.7713 27.4315 38.678V32.042C27.4315 31.9487 27.4595 31.874 27.5155 31.818C27.5808 31.7527 27.6602 31.72 27.7535 31.72H28.4255C28.5188 31.72 28.5935 31.7527 28.6495 31.818C28.7148 31.874 28.7475 31.9487 28.7475 32.042V38.678C28.7475 38.7713 28.7148 38.8507 28.6495 38.916C28.5935 38.972 28.5188 39 28.4255 39H27.7535ZM31.1441 39C31.0508 39 30.9715 38.972 30.9061 38.916C30.8501 38.8507 30.8221 38.7713 30.8221 38.678V32.042C30.8221 31.9487 30.8501 31.874 30.9061 31.818C30.9715 31.7527 31.0508 31.72 31.1441 31.72H31.8021C31.8955 31.72 31.9701 31.7527 32.0261 31.818C32.0915 31.874 32.1241 31.9487 32.1241 32.042V32.658C32.3948 32.3127 32.7121 32.0467 33.0761 31.86C33.4495 31.6733 33.9115 31.58 34.4621 31.58C35.3581 31.58 36.0535 31.8693 36.5481 32.448C37.0521 33.0173 37.3041 33.778 37.3041 34.73V38.678C37.3041 38.7713 37.2715 38.8507 37.2061 38.916C37.1501 38.972 37.0755 39 36.9821 39H36.2821C36.1888 39 36.1095 38.972 36.0441 38.916C35.9881 38.8507 35.9601 38.7713 35.9601 38.678V34.8C35.9601 34.1373 35.7968 33.624 35.4701 33.26C35.1528 32.896 34.6908 32.714 34.0841 32.714C33.4961 32.714 33.0295 32.9007 32.6841 33.274C32.3388 33.638 32.1661 34.1467 32.1661 34.8V38.678C32.1661 38.7713 32.1335 38.8507 32.0681 38.916C32.0121 38.972 31.9375 39 31.8441 39H31.1441ZM39.5224 30.362C39.429 30.362 39.3497 30.334 39.2844 30.278C39.2284 30.2127 39.2004 30.1333 39.2004 30.04V29.284C39.2004 29.1907 39.2284 29.1113 39.2844 29.046C39.3497 28.9807 39.429 28.948 39.5224 28.948H40.4044C40.4977 28.948 40.577 28.9807 40.6424 29.046C40.7077 29.1113 40.7404 29.1907 40.7404 29.284V30.04C40.7404 30.1333 40.7077 30.2127 40.6424 30.278C40.577 30.334 40.4977 30.362 40.4044 30.362H39.5224ZM39.6344 39C39.541 39 39.4617 38.972 39.3964 38.916C39.3404 38.8507 39.3124 38.7713 39.3124 38.678V32.042C39.3124 31.9487 39.3404 31.874 39.3964 31.818C39.4617 31.7527 39.541 31.72 39.6344 31.72H40.3064C40.3997 31.72 40.4744 31.7527 40.5304 31.818C40.5957 31.874 40.6284 31.9487 40.6284 32.042V38.678C40.6284 38.7713 40.5957 38.8507 40.5304 38.916C40.4744 38.972 40.3997 39 40.3064 39H39.6344ZM43.025 39C42.9317 39 42.8523 38.972 42.787 38.916C42.731 38.8507 42.703 38.7713 42.703 38.678V32.042C42.703 31.9487 42.731 31.874 42.787 31.818C42.8523 31.7527 42.9317 31.72 43.025 31.72H43.683C43.7763 31.72 43.851 31.7527 43.907 31.818C43.9723 31.874 44.005 31.9487 44.005 32.042V32.658C44.2757 32.3127 44.593 32.0467 44.957 31.86C45.3303 31.6733 45.7923 31.58 46.343 31.58C47.239 31.58 47.9343 31.8693 48.429 32.448C48.933 33.0173 49.185 33.778 49.185 34.73V38.678C49.185 38.7713 49.1523 38.8507 49.087 38.916C49.031 38.972 48.9563 39 48.863 39H48.163C48.0697 39 47.9903 38.972 47.925 38.916C47.869 38.8507 47.841 38.7713 47.841 38.678V34.8C47.841 34.1373 47.6777 33.624 47.351 33.26C47.0337 32.896 46.5717 32.714 45.965 32.714C45.377 32.714 44.9103 32.9007 44.565 33.274C44.2197 33.638 44.047 34.1467 44.047 34.8V38.678C44.047 38.7713 44.0143 38.8507 43.949 38.916C43.893 38.972 43.8183 39 43.725 39H43.025ZM54.1752 42.08C53.4099 42.08 52.7939 41.9493 52.3272 41.688C51.8606 41.436 51.5292 41.1467 51.3332 40.82C51.1372 40.4933 51.0299 40.1993 51.0112 39.938C51.0019 39.8447 51.0299 39.7653 51.0952 39.7C51.1699 39.6347 51.2492 39.602 51.3332 39.602H52.0052C52.0892 39.602 52.1592 39.6207 52.2152 39.658C52.2712 39.7047 52.3179 39.784 52.3552 39.896C52.4672 40.1947 52.6492 40.4513 52.9012 40.666C53.1626 40.89 53.5639 41.002 54.1052 41.002C54.7959 41.002 55.3046 40.8527 55.6312 40.554C55.9579 40.2647 56.1212 39.7467 56.1212 39V38.048C55.8786 38.356 55.5706 38.6033 55.1972 38.79C54.8239 38.9673 54.3806 39.056 53.8672 39.056C52.8779 39.056 52.1359 38.7433 51.6412 38.118C51.1559 37.4833 50.8992 36.6807 50.8712 35.71L50.8572 35.318L50.8712 34.94C50.8992 33.9787 51.1606 33.1807 51.6552 32.546C52.1499 31.902 52.8872 31.58 53.8672 31.58C54.8472 31.58 55.6126 31.9393 56.1632 32.658V32.056C56.1632 31.9627 56.1912 31.8833 56.2472 31.818C56.3126 31.7527 56.3919 31.72 56.4852 31.72H57.1292C57.2226 31.72 57.3019 31.7527 57.3672 31.818C57.4326 31.8833 57.4652 31.9627 57.4652 32.056V38.846C57.4652 41.002 56.3686 42.08 54.1752 42.08ZM54.1472 37.936C54.7819 37.936 55.2626 37.726 55.5892 37.306C55.9159 36.886 56.0932 36.3867 56.1212 35.808C56.1306 35.724 56.1352 35.5607 56.1352 35.318C56.1352 35.0847 56.1306 34.926 56.1212 34.842C56.0932 34.2633 55.9159 33.764 55.5892 33.344C55.2719 32.924 54.7912 32.714 54.1472 32.714C53.4846 32.714 53.0039 32.9193 52.7052 33.33C52.4066 33.7407 52.2432 34.282 52.2152 34.954L52.2012 35.318L52.2152 35.696C52.2432 36.3587 52.4066 36.9 52.7052 37.32C53.0039 37.7307 53.4846 37.936 54.1472 37.936Z" fill="#BEBAB3"/>
</svg>
