<svg width="65" height="43" viewBox="0 0 65 43" fill="none" xmlns="http://www.w3.org/2000/svg">
<path d="M39.2507 8.25V18.75C39.2502 19.1477 39.092 19.529 38.8108 19.8102C38.5296 20.0914 38.1484 20.2496 37.7507 20.25H24.2507C23.853 20.2496 23.4717 20.0914 23.1905 19.8102C22.9093 19.529 22.7511 19.1477 22.7507 18.75V8.25C22.7511 7.85231 22.9093 7.47104 23.1905 7.18983C23.4717 6.90863 23.853 6.75045 24.2507 6.75H37.7507C38.1484 6.75045 38.5296 6.90863 38.8108 7.18983C39.092 7.47104 39.2502 7.85231 39.2507 8.25ZM40.7507 3.75H26.5007C26.3018 3.75 26.111 3.82902 25.9703 3.96967C25.8297 4.11032 25.7507 4.30109 25.7507 4.5C25.7507 4.69891 25.8297 4.88968 25.9703 5.03033C26.111 5.17098 26.3018 5.25 26.5007 5.25H40.7507V16.5C40.7507 16.6989 40.8297 16.8897 40.9703 17.0303C41.111 17.171 41.3018 17.25 41.5007 17.25C41.6996 17.25 41.8904 17.171 42.031 17.0303C42.1717 16.8897 42.2507 16.6989 42.2507 16.5V5.25C42.2502 4.85231 42.092 4.47104 41.8108 4.18983C41.5296 3.90863 41.1484 3.75045 40.7507 3.75Z" fill="#E3562A"/>
<path d="M10.0345 39C9.94121 39 9.86187 38.972 9.79654 38.916C9.74054 38.8507 9.71254 38.7713 9.71254 38.678V30.446H7.02454C6.93121 30.446 6.85187 30.418 6.78654 30.362C6.73054 30.2967 6.70254 30.2173 6.70254 30.124V29.536C6.70254 29.4333 6.73054 29.354 6.78654 29.298C6.85187 29.2327 6.93121 29.2 7.02454 29.2H13.7725C13.8752 29.2 13.9545 29.2327 14.0105 29.298C14.0759 29.354 14.1085 29.4333 14.1085 29.536V30.124C14.1085 30.2173 14.0759 30.2967 14.0105 30.362C13.9545 30.418 13.8752 30.446 13.7725 30.446H11.0985V38.678C11.0985 38.7713 11.0659 38.8507 11.0005 38.916C10.9445 38.972 10.8652 39 10.7625 39H10.0345ZM14.6832 39C14.5899 39 14.5105 38.972 14.4452 38.916C14.3892 38.8507 14.3612 38.7713 14.3612 38.678V32.056C14.3612 31.9627 14.3892 31.8833 14.4452 31.818C14.5105 31.7527 14.5899 31.72 14.6832 31.72H15.3272C15.4205 31.72 15.4999 31.7527 15.5652 31.818C15.6305 31.8833 15.6632 31.9627 15.6632 32.056V32.672C15.8499 32.3547 16.1065 32.1167 16.4332 31.958C16.7599 31.7993 17.1519 31.72 17.6092 31.72H18.1692C18.2625 31.72 18.3372 31.7527 18.3932 31.818C18.4492 31.874 18.4772 31.9487 18.4772 32.042V32.616C18.4772 32.7093 18.4492 32.784 18.3932 32.84C18.3372 32.896 18.2625 32.924 18.1692 32.924H17.3292C16.8252 32.924 16.4285 33.0733 16.1392 33.372C15.8499 33.6613 15.7052 34.058 15.7052 34.562V38.678C15.7052 38.7713 15.6725 38.8507 15.6072 38.916C15.5419 38.972 15.4625 39 15.3692 39H14.6832ZM21.6002 39.14C21.1335 39.14 20.7088 39.0467 20.3262 38.86C19.9435 38.6733 19.6355 38.4213 19.4022 38.104C19.1688 37.7867 19.0522 37.4273 19.0522 37.026C19.0522 36.382 19.3135 35.8687 19.8362 35.486C20.3588 35.1033 21.0402 34.8513 21.8802 34.73L23.9662 34.436V34.03C23.9662 33.582 23.8355 33.232 23.5742 32.98C23.3222 32.728 22.9068 32.602 22.3282 32.602C21.9082 32.602 21.5675 32.686 21.3062 32.854C21.0542 33.022 20.8768 33.2367 20.7742 33.498C20.7182 33.638 20.6202 33.708 20.4802 33.708H19.8502C19.7475 33.708 19.6682 33.68 19.6122 33.624C19.5655 33.5587 19.5422 33.484 19.5422 33.4C19.5422 33.26 19.5935 33.0873 19.6962 32.882C19.8082 32.6767 19.9762 32.476 20.2002 32.28C20.4242 32.084 20.7088 31.9207 21.0542 31.79C21.4088 31.65 21.8382 31.58 22.3422 31.58C22.9022 31.58 23.3735 31.6547 23.7562 31.804C24.1388 31.944 24.4375 32.1353 24.6522 32.378C24.8762 32.6207 25.0348 32.896 25.1282 33.204C25.2308 33.512 25.2822 33.8247 25.2822 34.142V38.678C25.2822 38.7713 25.2495 38.8507 25.1842 38.916C25.1282 38.972 25.0535 39 24.9602 39H24.3162C24.2135 39 24.1342 38.972 24.0782 38.916C24.0222 38.8507 23.9942 38.7713 23.9942 38.678V38.076C23.8728 38.244 23.7095 38.412 23.5042 38.58C23.2988 38.7387 23.0422 38.874 22.7342 38.986C22.4262 39.0887 22.0482 39.14 21.6002 39.14ZM21.8942 38.09C22.2768 38.09 22.6268 38.0107 22.9442 37.852C23.2615 37.684 23.5088 37.4273 23.6862 37.082C23.8728 36.7367 23.9662 36.3027 23.9662 35.78V35.388L22.3422 35.626C21.6795 35.7193 21.1802 35.878 20.8442 36.102C20.5082 36.3167 20.3402 36.592 20.3402 36.928C20.3402 37.1893 20.4148 37.4087 20.5642 37.586C20.7228 37.754 20.9188 37.88 21.1522 37.964C21.3948 38.048 21.6422 38.09 21.8942 38.09ZM27.6168 39C27.5235 39 27.4441 38.972 27.3788 38.916C27.3228 38.8507 27.2948 38.7713 27.2948 38.678V32.042C27.2948 31.9487 27.3228 31.874 27.3788 31.818C27.4441 31.7527 27.5235 31.72 27.6168 31.72H28.2888C28.3821 31.72 28.4568 31.7527 28.5128 31.818C28.5688 31.874 28.5968 31.9487 28.5968 32.042V38.678C28.5968 38.7713 28.5688 38.8507 28.5128 38.916C28.4568 38.972 28.3821 39 28.2888 39H27.6168ZM27.5048 30.362C27.4115 30.362 27.3321 30.334 27.2668 30.278C27.2108 30.2127 27.1828 30.1333 27.1828 30.04V29.284C27.1828 29.1907 27.2108 29.116 27.2668 29.06C27.3321 28.9947 27.4115 28.962 27.5048 28.962H28.3868C28.4801 28.962 28.5548 28.9947 28.6108 29.06C28.6761 29.116 28.7088 29.1907 28.7088 29.284V30.04C28.7088 30.1333 28.6761 30.2127 28.6108 30.278C28.5548 30.334 28.4801 30.362 28.3868 30.362H27.5048ZM31.1441 39C31.0508 39 30.9715 38.972 30.9061 38.916C30.8501 38.8507 30.8221 38.7713 30.8221 38.678V32.042C30.8221 31.9487 30.8501 31.874 30.9061 31.818C30.9715 31.7527 31.0508 31.72 31.1441 31.72H31.8021C31.8955 31.72 31.9701 31.7527 32.0261 31.818C32.0915 31.874 32.1241 31.9487 32.1241 32.042V32.658C32.3668 32.3407 32.6701 32.084 33.0341 31.888C33.4075 31.6827 33.8835 31.58 34.4621 31.58C35.0688 31.58 35.5821 31.7153 36.0021 31.986C36.4315 32.2473 36.7535 32.616 36.9681 33.092C37.1828 33.5587 37.2901 34.1047 37.2901 34.73V38.678C37.2901 38.7713 37.2621 38.8507 37.2061 38.916C37.1501 38.972 37.0755 39 36.9821 39H36.2821C36.1888 39 36.1095 38.972 36.0441 38.916C35.9881 38.8507 35.9601 38.7713 35.9601 38.678V34.8C35.9601 34.1467 35.8015 33.638 35.4841 33.274C35.1668 32.9007 34.7001 32.714 34.0841 32.714C33.5055 32.714 33.0388 32.9007 32.6841 33.274C32.3388 33.638 32.1661 34.1467 32.1661 34.8V38.678C32.1661 38.7713 32.1335 38.8507 32.0681 38.916C32.0121 38.972 31.9375 39 31.8441 39H31.1441ZM39.6344 39C39.541 39 39.4617 38.972 39.3964 38.916C39.3404 38.8507 39.3124 38.7713 39.3124 38.678V32.042C39.3124 31.9487 39.3404 31.874 39.3964 31.818C39.4617 31.7527 39.541 31.72 39.6344 31.72H40.3064C40.3997 31.72 40.4744 31.7527 40.5304 31.818C40.5864 31.874 40.6144 31.9487 40.6144 32.042V38.678C40.6144 38.7713 40.5864 38.8507 40.5304 38.916C40.4744 38.972 40.3997 39 40.3064 39H39.6344ZM39.5224 30.362C39.429 30.362 39.3497 30.334 39.2844 30.278C39.2284 30.2127 39.2004 30.1333 39.2004 30.04V29.284C39.2004 29.1907 39.2284 29.116 39.2844 29.06C39.3497 28.9947 39.429 28.962 39.5224 28.962H40.4044C40.4977 28.962 40.5724 28.9947 40.6284 29.06C40.6937 29.116 40.7264 29.1907 40.7264 29.284V30.04C40.7264 30.1333 40.6937 30.2127 40.6284 30.278C40.5724 30.334 40.4977 30.362 40.4044 30.362H39.5224ZM43.1617 39C43.0684 39 42.989 38.972 42.9237 38.916C42.8677 38.8507 42.8397 38.7713 42.8397 38.678V32.042C42.8397 31.9487 42.8677 31.874 42.9237 31.818C42.989 31.7527 43.0684 31.72 43.1617 31.72H43.8197C43.913 31.72 43.9877 31.7527 44.0437 31.818C44.109 31.874 44.1417 31.9487 44.1417 32.042V32.658C44.3844 32.3407 44.6877 32.084 45.0517 31.888C45.425 31.6827 45.901 31.58 46.4797 31.58C47.0864 31.58 47.5997 31.7153 48.0197 31.986C48.449 32.2473 48.771 32.616 48.9857 33.092C49.2004 33.5587 49.3077 34.1047 49.3077 34.73V38.678C49.3077 38.7713 49.2797 38.8507 49.2237 38.916C49.1677 38.972 49.093 39 48.9997 39H48.2997C48.2064 39 48.127 38.972 48.0617 38.916C48.0057 38.8507 47.9777 38.7713 47.9777 38.678V34.8C47.9777 34.1467 47.819 33.638 47.5017 33.274C47.1844 32.9007 46.7177 32.714 46.1017 32.714C45.523 32.714 45.0564 32.9007 44.7017 33.274C44.3564 33.638 44.1837 34.1467 44.1837 34.8V38.678C44.1837 38.7713 44.151 38.8507 44.0857 38.916C44.0297 38.972 43.955 39 43.8617 39H43.1617ZM54.3119 42.08C53.6773 42.08 53.1546 41.996 52.7439 41.828C52.3426 41.66 52.0253 41.4547 51.7919 41.212C51.5679 40.9787 51.4046 40.7407 51.3019 40.498C51.2086 40.2647 51.1573 40.078 51.1479 39.938C51.1386 39.8447 51.1666 39.7653 51.2319 39.7C51.3066 39.6347 51.3859 39.602 51.4699 39.602H52.1419C52.2259 39.602 52.2959 39.6207 52.3519 39.658C52.4079 39.6953 52.4546 39.7747 52.4919 39.896C52.5479 40.036 52.6319 40.19 52.7439 40.358C52.8559 40.5353 53.0286 40.6847 53.2619 40.806C53.4953 40.9367 53.8219 41.002 54.2419 41.002C54.6806 41.002 55.0493 40.9413 55.3479 40.82C55.6466 40.708 55.8706 40.5027 56.0199 40.204C56.1786 39.9147 56.2579 39.5133 56.2579 39V38.048C56.0339 38.3373 55.7399 38.58 55.3759 38.776C55.0119 38.9627 54.5546 39.056 54.0039 39.056C53.4813 39.056 53.0333 38.9673 52.6599 38.79C52.2866 38.6033 51.9786 38.356 51.7359 38.048C51.5026 37.7307 51.3253 37.3713 51.2039 36.97C51.0919 36.5687 51.0266 36.1487 51.0079 35.71C50.9986 35.4487 50.9986 35.192 51.0079 34.94C51.0266 34.5013 51.0919 34.0813 51.2039 33.68C51.3253 33.2787 51.5026 32.9193 51.7359 32.602C51.9786 32.2847 52.2866 32.0373 52.6599 31.86C53.0333 31.6733 53.4813 31.58 54.0039 31.58C54.5639 31.58 55.0259 31.6873 55.3899 31.902C55.7633 32.1073 56.0666 32.3593 56.2999 32.658V32.056C56.2999 31.9627 56.3279 31.8833 56.3839 31.818C56.4493 31.7527 56.5286 31.72 56.6219 31.72H57.2659C57.3593 31.72 57.4386 31.7527 57.5039 31.818C57.5693 31.8833 57.6019 31.9627 57.6019 32.056V38.846C57.6019 39.4713 57.4946 40.0267 57.2799 40.512C57.0746 40.9973 56.7293 41.38 56.2439 41.66C55.7679 41.94 55.1239 42.08 54.3119 42.08ZM54.2839 37.936C54.7506 37.936 55.1239 37.8287 55.4039 37.614C55.6933 37.3993 55.9033 37.1287 56.0339 36.802C56.1739 36.4753 56.2486 36.144 56.2579 35.808C56.2673 35.6773 56.2719 35.5187 56.2719 35.332C56.2719 35.136 56.2673 34.9727 56.2579 34.842C56.2486 34.506 56.1739 34.1747 56.0339 33.848C55.9033 33.5213 55.6933 33.2507 55.4039 33.036C55.1239 32.8213 54.7506 32.714 54.2839 32.714C53.8173 32.714 53.4439 32.8213 53.1639 33.036C52.8839 33.2413 52.6833 33.5167 52.5619 33.862C52.4406 34.198 52.3706 34.562 52.3519 34.954C52.3426 35.1967 52.3426 35.444 52.3519 35.696C52.3706 36.088 52.4406 36.4567 52.5619 36.802C52.6833 37.138 52.8839 37.4133 53.1639 37.628C53.4439 37.8333 53.8173 37.936 54.2839 37.936Z" fill="#E3562A"/>
</svg>
