<svg width="65" height="42" viewBox="0 0 65 42" fill="none" xmlns="http://www.w3.org/2000/svg">
<path d="M43.3 18V5.99998C43.3 4.67998 42.22 3.59998 40.9 3.59998H25.3C23.98 3.59998 22.9 4.67998 22.9 5.99998V18C22.9 19.32 23.98 20.4 25.3 20.4H40.9C42.22 20.4 43.3 19.32 43.3 18ZM30.1 16.8V7.19998L37.3 12L30.1 16.8Z" fill="#BEBAB3"/>
<path d="M18.2482 39C17.9962 39 17.8235 38.8787 17.7302 38.636L14.6082 29.634L14.5802 29.48C14.5802 29.4053 14.6082 29.34 14.6642 29.284C14.7202 29.228 14.7855 29.2 14.8602 29.2H15.5882C15.7655 29.2 15.8915 29.284 15.9662 29.452L18.6962 37.39L21.4402 29.452C21.4588 29.396 21.5008 29.34 21.5662 29.284C21.6315 29.228 21.7108 29.2 21.8042 29.2H22.5322C22.6068 29.2 22.6722 29.228 22.7282 29.284C22.7935 29.34 22.8262 29.4053 22.8262 29.48L22.7982 29.634L19.6622 38.636C19.5688 38.8787 19.4008 39 19.1582 39H18.2482ZM24.538 30.362C24.4447 30.362 24.3653 30.334 24.3 30.278C24.244 30.2127 24.216 30.1333 24.216 30.04V29.284C24.216 29.1907 24.244 29.1113 24.3 29.046C24.3653 28.9807 24.4447 28.948 24.538 28.948H25.42C25.5133 28.948 25.5927 28.9807 25.658 29.046C25.7233 29.1113 25.756 29.1907 25.756 29.284V30.04C25.756 30.1333 25.7233 30.2127 25.658 30.278C25.5927 30.334 25.5133 30.362 25.42 30.362H24.538ZM24.65 39C24.5567 39 24.4773 38.972 24.412 38.916C24.356 38.8507 24.328 38.7713 24.328 38.678V32.042C24.328 31.9487 24.356 31.874 24.412 31.818C24.4773 31.7527 24.5567 31.72 24.65 31.72H25.322C25.4153 31.72 25.49 31.7527 25.546 31.818C25.6113 31.874 25.644 31.9487 25.644 32.042V38.678C25.644 38.7713 25.6113 38.8507 25.546 38.916C25.49 38.972 25.4153 39 25.322 39H24.65ZM30.3786 39.14C29.408 39.14 28.6753 38.8227 28.1806 38.188C27.686 37.5533 27.4246 36.7507 27.3966 35.78L27.3826 35.36L27.3966 34.94C27.4246 33.9787 27.686 33.1807 28.1806 32.546C28.6753 31.902 29.408 31.58 30.3786 31.58C31.34 31.58 32.096 31.9207 32.6466 32.602V29.382C32.6466 29.2887 32.6746 29.214 32.7306 29.158C32.796 29.0927 32.8753 29.06 32.9686 29.06H33.6406C33.734 29.06 33.8086 29.0927 33.8646 29.158C33.93 29.214 33.9626 29.2887 33.9626 29.382V38.678C33.9626 38.7713 33.93 38.8507 33.8646 38.916C33.8086 38.972 33.734 39 33.6406 39H33.0106C32.9173 39 32.838 38.972 32.7726 38.916C32.7166 38.8507 32.6886 38.7713 32.6886 38.678V38.09C32.1473 38.79 31.3773 39.14 30.3786 39.14ZM30.6726 38.006C31.3166 38.006 31.7973 37.796 32.1146 37.376C32.4413 36.9467 32.6186 36.438 32.6466 35.85C32.656 35.7473 32.6606 35.57 32.6606 35.318C32.6606 35.0567 32.656 34.8747 32.6466 34.772C32.628 34.2213 32.4506 33.7407 32.1146 33.33C31.7786 32.9193 31.298 32.714 30.6726 32.714C30.01 32.714 29.5246 32.9193 29.2166 33.33C28.918 33.7407 28.7546 34.282 28.7266 34.954L28.7126 35.36C28.7126 37.124 29.366 38.006 30.6726 38.006ZM38.9568 39.14C37.9955 39.14 37.2255 38.846 36.6468 38.258C36.0775 37.6607 35.7648 36.8487 35.7088 35.822L35.6948 35.346L35.7088 34.884C35.7741 33.876 36.0915 33.0733 36.6608 32.476C37.2395 31.8787 38.0001 31.58 38.9428 31.58C39.9788 31.58 40.7815 31.9113 41.3508 32.574C41.9201 33.2273 42.2048 34.114 42.2048 35.234V35.472C42.2048 35.5653 42.1721 35.6447 42.1068 35.71C42.0508 35.766 41.9761 35.794 41.8828 35.794H37.0388V35.92C37.0668 36.5267 37.2488 37.0447 37.5848 37.474C37.9301 37.894 38.3828 38.104 38.9428 38.104C39.3721 38.104 39.7221 38.02 39.9928 37.852C40.2728 37.6747 40.4781 37.4927 40.6088 37.306C40.6928 37.194 40.7535 37.1287 40.7908 37.11C40.8375 37.082 40.9168 37.068 41.0288 37.068H41.7148C41.7988 37.068 41.8688 37.0913 41.9248 37.138C41.9808 37.1847 42.0088 37.25 42.0088 37.334C42.0088 37.5393 41.8781 37.7867 41.6168 38.076C41.3648 38.3653 41.0055 38.6173 40.5388 38.832C40.0815 39.0373 39.5541 39.14 38.9568 39.14ZM40.8748 34.828V34.786C40.8748 34.142 40.6975 33.6193 40.3428 33.218C39.9975 32.8073 39.5308 32.602 38.9428 32.602C38.3548 32.602 37.8881 32.8073 37.5428 33.218C37.2068 33.6193 37.0388 34.142 37.0388 34.786V34.828H40.8748ZM46.8608 39.14C45.8341 39.14 45.0361 38.8507 44.4668 38.272C43.9068 37.6933 43.6081 36.9233 43.5708 35.962L43.5568 35.36L43.5708 34.758C43.6081 33.806 43.9114 33.0407 44.4808 32.462C45.0501 31.874 45.8434 31.58 46.8608 31.58C47.8781 31.58 48.6714 31.874 49.2408 32.462C49.8101 33.0407 50.1134 33.806 50.1508 34.758C50.1601 34.8607 50.1648 35.0613 50.1648 35.36C50.1648 35.6587 50.1601 35.8593 50.1508 35.962C50.1134 36.9233 49.8101 37.6933 49.2408 38.272C48.6808 38.8507 47.8874 39.14 46.8608 39.14ZM46.8608 38.062C47.4488 38.062 47.9108 37.8753 48.2468 37.502C48.5921 37.1287 48.7788 36.592 48.8068 35.892C48.8161 35.7987 48.8208 35.6213 48.8208 35.36C48.8208 35.0987 48.8161 34.9213 48.8068 34.828C48.7788 34.128 48.5921 33.5913 48.2468 33.218C47.9108 32.8447 47.4488 32.658 46.8608 32.658C46.2728 32.658 45.8061 32.8447 45.4608 33.218C45.1154 33.5913 44.9334 34.128 44.9148 34.828L44.9008 35.36L44.9148 35.892C44.9334 36.592 45.1154 37.1287 45.4608 37.502C45.8061 37.8753 46.2728 38.062 46.8608 38.062Z" fill="#BEBAB3"/>
</svg>
